PathFileType	4	(X/Y/Z)	27_2_80_p0_0-344_filt_butterworth.trc
DataRate	CameraRate	NumFrames	NumMarkers	Units	OrigDataRate	OrigDataStartFrame	OrigNumFrames
56.0	56.0	5	27	m	56.0	0	344
Frame#	Time	RHip			RKnee			RAnkle			RBigToe			RSmallToe			RHeel			LHip			LKnee			LAnkle			LBigToe			LSmallToe			LHeel			Neck			Head			Nose			RShoulder			RElbow			RWrist			RThumb			RIndex			RPinky			LShoulder			LElbow			LWrist			LThumb			LIndex			LPinky			
		X1	Y1	Z1	X2	Y2	Z2	X3	Y3	Z3	X4	Y4	Z4	X5	Y5	Z5	X6	Y6	Z6	X7	Y7	Z7	X8	Y8	Z8	X9	Y9	Z9	X10	Y10	Z10	X11	Y11	Z11	X12	Y12	Z12	X13	Y13	Z13	X14	Y14	Z14	X15	Y15	Z15	X16	Y16	Z16	X17	Y17	Z17	X18	Y18	Z18	X19	Y19	Z19	X20	Y20	Z20	X21	Y21	Z21	X22	Y22	Z22	X23	Y23	Z23	X24	Y24	Z24	X25	Y25	Z25	X26	Y26	Z26	X27	Y27	Z27	
0	0.0	0.1589832535768001	0.5778948839882959	0.8413730583458899	0.16763823600799987	0.7070785896563239	1.343890553153355	0.18466813873249036	0.8117813978873629	1.8135363015359949	0.12859340007696302	0.5900665913135668	1.8388870168032547	0.19080369924518342	0.5995019610388556	1.8324240819966795	0.16857182395176473	0.9058557618078124	1.884002276774874	-0.06122899357651158	0.6074991204189876	0.8441597938245016	-0.049521486114962474	0.7431428861153954	1.3724025441084657	-0.03492949046769506	0.8101832891803152	1.8368924558550384	-0.032069729733643956	0.5837886405333238	1.8350732036789146	-0.07945857473202694	0.646656358853173	1.8458043702012734	0.0017983646914618422	0.8692344449597652	1.8808442291333192	0.012182062505989058	0.5533462322240461	0.30467376912688726	0.01011453782255775	0.49784956588822826	0.06971120634968377	-0.022918632314417667	0.4371396912202534	0.19672713758235036	0.17769359915786248	0.5387683055876232	0.40048622428726566	0.24166854797197365	0.5520193651563051	0.6801879481733829	0.24240454256761934	0.4961149112740284	0.9478390795251794	0.15936384903919065	0.5118128650362658	1.0684048447820718	0.18759032148115828	0.571228896571735	1.1295917242374913	0.2063013695854161	0.5967410152235704	1.1295890132532944	-0.14684446102728327	0.5953825356034778	0.41547695939583607	-0.17134417252934686	0.6315339237441562	0.6934325796238563	-0.14916429162063577	0.5737428268837406	0.9642185157420329	-0.07728922048067055	0.5253798685274336	1.0611968174723263	-0.08832289978276428	0.5188905158700073	1.098860117410834	-0.13373855395073228	0.6027911242633813	1.1183261403157205
1	0.0178571428571428	0.15949019258802263	0.5787363489806167	0.8437689315584339	0.16386506124916692	0.711308964265934	1.3484263847142475	0.1870301610539844	0.8072574289070324	1.8112087213754338	0.12866894667141382	0.5960153547388931	1.843964079939761	0.19234829053430386	0.6000715705477427	1.8324395481268003	0.16943701313653153	0.9020626062477737	1.8807818588788074	-0.06078189189341168	0.6084032975433221	0.8470578080608413	-0.049497000176733974	0.7430355755592629	1.3724039382702422	-0.033256623247757286	0.8051758809291791	1.8327972231715977	-0.029628453005213242	0.5932603202362764	1.8401589365839652	-0.07988736403417371	0.6485999500073515	1.84735361315525	0.0021669724625065947	0.8709737796594103	1.8799187172881584	0.01215740317290327	0.5532469310574937	0.30673768282438246	0.009994676470470696	0.49768554440690954	0.0675970897516387	-0.022906135314964982	0.4372626878830918	0.19666896477653542	0.1774447028937156	0.5386924269555153	0.4004235622752625	0.24167410229714392	0.5520980110976779	0.6800936559437565	0.2445070966393198	0.5119283341261	0.9513750522221833	0.15933359612155185	0.5119268716199056	1.0684369916495677	0.18452132133428967	0.5643012608962161	1.1269647748129954	0.2065054507664814	0.5971311774609855	1.1308218261394924	-0.14663489104118504	0.5954609912955705	0.41546921531735226	-0.16908283683534847	0.6227286862353	0.6916628577098238	-0.15092668333532822	0.5780546452660081	0.9612896147447486	-0.07733443704769818	0.5257794212004898	1.0582958879822	-0.08883892236891469	0.5205025104116145	1.096899722027194	-0.13303319052498175	0.603581900263817	1.116642787371373
2	0.0357142857142857	0.15976780037426794	0.5791831584467038	0.8451304468300553	0.16275118344361034	0.7131750244136732	1.3507599598283562	0.18868474752546896	0.8076679913601488	1.811297627712634	0.1292839572656502	0.6015349618286138	1.846916295443612	0.19392750621930177	0.6004893616052995	1.8325188552004166	0.16985871408612965	0.902642395825167	1.8794979903056186	-0.06053395874637954	0.6088924347251475	0.8486990161515329	-0.049500325818784344	0.7429082302249428	1.372384833114767	-0.033372463340004606	0.8043572573147845	1.8307352161083703	-0.028255811664411948	0.5988457520127028	1.8432098123666152	-0.08018089194354966	0.6499368770763134	1.8484293573504713	0.002348361952451279	0.8719089749368083	1.8799656944218694	0.012151575492946367	0.5531946917222206	0.3079052641426271	0.009934607608035712	0.4975984048729818	0.06641174754782186	-0.022902877933662545	0.4373457861368212	0.1966268314789551	0.1773072504234593	0.5385891423609704	0.4003774305858258	0.24167957163367332	0.5521292579021764	0.6800443054633627	0.24570484373029688	0.5208601808789634	0.9533874830366967	0.159023104963775	0.5116289944479147	1.0676672818506954	0.1826640889285348	0.5601385645052992	1.1251019152283148	0.2064501831335886	0.5971592432202213	1.130937690847794	-0.14651322758457364	0.5955291775721818	0.4154696692368907	-0.16785885904770728	0.617562987163252	0.6902664712863597	-0.1525132002659495	0.5821901466733285	0.9591022265390259	-0.07745609711285555	0.5256399413865057	1.056287278365689	-0.08982363173654247	0.5238192292239009	1.096812758560294	-0.1330402645500524	0.6038328221902365	1.1156337214368626
3	0.0535714285714285	0.15981598941025046	0.5792403758322507	0.8454359420232945	0.1642569081764967	0.7117923256454259	1.3505622585442199	0.1894250249581214	0.8107768264800794	1.8127198376374507	0.12998448507908736	0.6052285496608208	1.847529764111524	0.19505807472804798	0.6006800913641026	1.8326406855793838	0.1701397442620366	0.9057406501036211	1.8794744685197975	-0.06048211482830074	0.6089537594957136	0.8490529032100775	-0.04950169188651737	0.7427858334916241	1.3723587340239158	-0.034762994148988556	0.8062096605741847	1.8303867218094887	-0.02796574677838474	0.600363372713048	1.844105276883449	-0.08029792098378762	0.6505773223199135	1.848933796467932	0.0023178508937582013	0.8720182260017961	1.8806621440307287	0.012161045927281391	0.5531890522400262	0.3081601952935573	0.009928445116674291	0.4975940827663451	0.06617604739006874	-0.022907221372816623	0.4373724362892385	0.19660630508901844	0.17729052119771607	0.5385248562580495	0.40035687599642134	0.24168221844165982	0.5521251612381252	0.6800395367374498	0.24597698944888932	0.5228017371869078	0.9538541156014779	0.15810372865221484	0.5100408738646693	1.0659813419440474	0.1821748259144801	0.5589073994141753	1.1244694077103325	0.20624819886191614	0.5969586139248199	1.130330144287539	-0.1464828369340075	0.59559969224327	0.415476728064267	-0.16762186622454553	0.6162887534035904	0.6897504095940405	-0.15345525378402836	0.584977656254853	0.9579274200427866	-0.0778695159133032	0.5253098392870805	1.0554916924586515	-0.09106991016308717	0.5281508911397591	1.0986507482659507	-0.13340483376678297	0.6035749802000454	1.1150167827571213
4	0.0714285714285714	0.15977648736171862	0.5791568346800917	0.8452988275256164	0.16623459145741162	0.709175277880287	1.3493870255505347	0.18963927397795136	0.8113113182306593	1.8129184948383692	0.13010198303379772	0.6066778908744581	1.847348336811302	0.19544282762766524	0.6007264272207807	1.8326075462990141	0.1705579369000486	0.9078471063445268	1.8805560857019508	-0.06050561163275268	0.6088397935189428	0.8488608016458743	-0.04932644941404761	0.742804761323588	1.372410987176043	-0.035167368390851335	0.8076457289334511	1.8304286294482663	-0.028128019871516058	0.5999942942738099	1.8439807085235635	-0.08030401708333787	0.6507829062918635	1.8490710439802833	0.0021515133042441367	0.8718436681198718	1.8816219965872416	0.012170952851195096	0.5531981687931607	0.3080345501389127	0.0099364686437025	0.4976331198253823	0.06633174913561457	-0.022911347982932873	0.43735628967666673	0.19660180551826673	0.17732603830593333	0.5385546206547421	0.4003569888189935	0.24167806455292898	0.5521216081503284	0.6800505136206132	0.24585846200497338	0.521850199196968	0.9536922036255403	0.15645020017258762	0.5065205076547443	1.0645761360646198	0.182424268667064	0.5592236134322077	1.1249228874259534	0.2061177660840618	0.5968318679643623	1.1298980121625493	-0.1464957283872694	0.5956832641033917	0.41548541315618936	-0.16772051316864614	0.6168727972873074	0.6902227730734846	-0.15364230758549338	0.5860227190482797	0.9580500327090373	-0.0787062718312708	0.5263007543494466	1.0561117380041039	-0.09194712112796871	0.531267113398547	1.100891221589813	-0.13358371895182639	0.6032587316860838	1.114065372091189
